<svg width="42" height="34" viewBox="0 0 42 34" fill="none" xmlns="http://www.w3.org/2000/svg">
<path d="M22.6743 0.502408L31.9036 5.66453C32.1169 5.78375 32.2942 5.95732 32.4177 6.16732C32.5412 6.3774 32.6063 6.61631 32.6063 6.85967C32.6063 7.10303 32.5412 7.34195 32.4177 7.55203C32.2942 7.76203 32.1169 7.9356 31.9036 8.05481L22.6744 13.2172C22.0853 13.5466 21.4211 13.7197 20.7454 13.7197C20.0697 13.7197 19.4055 13.5466 18.8165 13.2172L9.58717 8.05481C9.37402 7.9356 9.19658 7.76203 9.07308 7.55203C8.94958 7.34195 8.88448 7.10303 8.88448 6.85967C8.88448 6.61631 8.94958 6.3774 9.07308 6.16732C9.19658 5.95732 9.37402 5.78375 9.58717 5.66453L18.8165 0.502408C19.4055 0.17295 20.0697 -5.81741e-05 20.7454 -5.81741e-05C21.4211 -5.81741e-05 22.0853 0.17295 22.6743 0.502408Z" fill="#828DF8"/>
<path opacity="0.7" d="M22.6244 5.34865L35.8422 12.7416C36.0554 12.8608 36.2328 13.0344 36.3563 13.2444C36.4798 13.4545 36.5449 13.6934 36.5449 13.9368C36.5449 14.1801 36.4798 14.4191 36.3563 14.6291C36.2328 14.8392 36.0554 15.0127 35.8422 15.132L22.6244 22.5249C22.0355 22.8543 21.3712 23.0273 20.6956 23.0273C20.0199 23.0273 19.3557 22.8543 18.7667 22.5249L5.54893 15.132C5.33578 15.0127 5.15833 14.8392 5.03483 14.6291C4.91133 14.4191 4.84623 14.1801 4.84623 13.9368C4.84623 13.6934 4.91133 13.4545 5.03483 13.2444C5.15833 13.0344 5.33578 12.8608 5.54893 12.7416L18.7667 5.34865C19.3557 5.01928 20.0199 4.84627 20.6956 4.84627C21.3712 4.84627 22.0355 5.01928 22.6244 5.34865Z" fill="#828DF8"/>
<path opacity="0.4" d="M22.9257 10.1942L41.2984 20.4705C41.5113 20.5896 41.6884 20.7628 41.8117 20.9726C41.935 21.1822 42 21.4208 42 21.6638C42 21.9068 41.935 22.1453 41.8117 22.355C41.6884 22.5647 41.5113 22.738 41.2984 22.857L22.9257 33.1331C22.3377 33.462 21.6745 33.6348 21 33.6348C20.3254 33.6348 19.6623 33.462 19.0743 33.1331L0.701542 22.857C0.488743 22.738 0.311581 22.5647 0.188286 22.355C0.0649948 22.1453 0 21.9068 0 21.6638C0 21.4208 0.0649948 21.1822 0.188286 20.9726C0.311581 20.7628 0.488743 20.5896 0.701542 20.4705L19.0743 10.1942C19.6623 9.86532 20.3254 9.69251 21 9.69251C21.6745 9.69251 22.3377 9.86532 22.9257 10.1942Z" fill="#828DF8"/>
</svg>
